<svg id="圖層_1" data-name="圖層 1" xmlns="http://www.w3.org/2000/svg" viewBox="0 0 449.6 323.45"><defs><style>.cls-1{fill:#4b4d66;}.cls-2{fill:#e3e5f2;}.cls-3{fill:#6a97b4;}.cls-4{fill:#637987;}.cls-5{fill:#eed788;}.cls-6{fill:#aeafb9;}</style></defs><title>素材</title><rect class="cls-1" x="2.43" y="2.21" width="444.75" height="318.82"/><path class="cls-2" d="M444.75,4.63v314H4.85V4.63H444.75M449.6-.22H0V323.45H449.6V-.22Z"/><path class="cls-2" d="M444.75,29.73v14.2H4.85V29.73H444.75m4.85-4.85H0V48.79H449.6V24.88Z"/><rect class="cls-3" x="48.73" y="164.92" width="82.49" height="153.68"/><rect class="cls-2" x="293.9" y="164.92" width="106.97" height="93.63"/><rect class="cls-4" x="137.5" y="164.92" width="151.39" height="93.63"/><rect class="cls-5" x="137.5" y="263.98" width="263.37" height="54.62"/><rect class="cls-3" x="48.73" y="77.83" width="352.15" height="80.67"/><rect class="cls-5" x="48.73" y="48.51" width="352.15" height="21.38"/><rect class="cls-6" x="303.12" y="175.81" width="88.54" height="4.85"/><rect class="cls-6" x="303.12" y="188.92" width="88.54" height="4.85"/><rect class="cls-6" x="303.12" y="202.03" width="88.54" height="4.85"/><rect class="cls-6" x="303.12" y="215.14" width="88.54" height="4.85"/><rect class="cls-6" x="303.12" y="228.25" width="88.54" height="4.85"/><rect class="cls-6" x="303.12" y="241.36" width="88.54" height="4.85"/><path class="cls-2" d="M214.46,191.34a19.83,19.83,0,1,0,19.83,19.83A19.83,19.83,0,0,0,214.46,191.34Zm-5.36,28.23V202.77l14.55,8.4Z"/><path class="cls-2" d="M403.3,48.08H46.3V25.45h357ZM51.15,43.23H398.45V30.31H51.15Z"/><circle class="cls-2" cx="45.89" cy="14.87" r="5.42"/><circle class="cls-3" cx="30.96" cy="14.87" r="5.2"/><circle class="cls-5" cx="16.02" cy="14.87" r="5.2"/></svg>