<?xml version="1.0" encoding="utf-8"?>
<!-- Generator: Adobe Illustrator 20.1.0, SVG Export Plug-In . SVG Version: 6.00 Build 0)  -->
<svg version="1.1" id="圖層_1" xmlns="http://www.w3.org/2000/svg" xmlns:xlink="http://www.w3.org/1999/xlink" x="0px" y="0px"
	 viewBox="0 0 201 337.5" style="enable-background:new 0 0 201 337.5;" xml:space="preserve">
<style type="text/css">
	.st0{clip-path:url(#SVGID_2_);}
	.st1{fill:#4B4D66;}
	.st2{fill:#E3E5F2;}
	.st3{fill:#AEAFB9;}
	.st4{fill:#EED788;}
	.st5{fill:#6A97B4;}
</style>
<title>ian</title>
<g>
	<defs>
		<rect id="SVGID_1_" x="7.8" y="-36.1" width="177.7" height="397.7"/>
	</defs>
	<clipPath id="SVGID_2_">
		<use xlink:href="#SVGID_1_"  style="overflow:visible;"/>
	</clipPath>
	<g class="st0">
		<rect x="-129.6" y="25.6" class="st1" width="274.8" height="242"/>
		<rect x="-114.1" y="41.5" class="st2" width="243.9" height="210.2"/>
		<path class="st1" d="M44.5,320h-73.3c-5.4-0.1-9.7-4.6-9.6-10c0-1.3,0.3-2.6,0.8-3.8l19-44.1c1.5-3.5,4.9-5.9,8.8-5.9h35.4
			c3.8,0,7.3,2.3,8.8,5.9l19,44.1c2.2,5,0,10.8-5,13C47.1,319.7,45.8,320,44.5,320z"/>
		<rect x="-62.4" y="301.1" class="st1" width="140.6" height="18.9"/>
		<rect x="-99.8" y="127.3" class="st3" width="119.5" height="16.7"/>
		<rect x="-99.8" y="156.6" class="st3" width="119.5" height="16.6"/>
		<rect x="-99.8" y="186" class="st3" width="119.5" height="16.6"/>
		<rect x="-99.8" y="215.4" class="st3" width="119.5" height="16.6"/>
		<rect x="-99.8" y="60.6" class="st4" width="213.2" height="46.4"/>
		<rect x="33.7" y="127.3" class="st5" width="79.7" height="104.7"/>
	</g>
</g>
</svg>
