<?xml version="1.0" encoding="utf-8"?>
<!-- Generator: Adobe Illustrator 20.1.0, SVG Export Plug-In . SVG Version: 6.00 Build 0)  -->
<svg version="1.1" id="圖層_1" xmlns="http://www.w3.org/2000/svg" xmlns:xlink="http://www.w3.org/1999/xlink" x="0px" y="0px"
	 viewBox="0 0 201 337.5" style="enable-background:new 0 0 201 337.5;" xml:space="preserve">
<style type="text/css">
	.st0{clip-path:url(#SVGID_2_);}
	.st1{fill:#AEAFB9;}
	.st2{fill:#4B4D66;}
	.st3{fill:#EED788;}
	.st4{fill:#FFFFFF;}
</style>
<title>ian</title>
<g>
	<defs>
		<rect id="SVGID_1_" x="-57.2" y="-69.9" width="251.2" height="430.2"/>
	</defs>
	<clipPath id="SVGID_2_">
		<use xlink:href="#SVGID_1_"  style="overflow:visible;"/>
	</clipPath>
	<g class="st0">
		<rect x="151.2" y="245.5" class="st1" width="86.6" height="58.3"/>
		<rect x="142.7" y="259.3" class="st2" width="103.7" height="10.6"/>
		<rect x="142.7" y="278.4" class="st2" width="103.7" height="10.6"/>
		<rect x="142.7" y="298.6" class="st2" width="103.7" height="10.6"/>
		<path class="st2" d="M231.9,305c0,0-0.3,0.3-0.8,0.9s-1.4,1.3-2.4,2.1c-2.6,2.1-5.5,4-8.5,5.6c-3.8,2-7.8,3.5-12,4.5
			c-2.2,0.6-4.5,1-6.8,1.2c-2.3,0.3-4.7,0.4-7,0.4c-2.3,0-4.7-0.2-7-0.5c-2.3-0.3-4.5-0.7-6.8-1.2c-4.2-1-8.2-2.5-12-4.5
			c-3-1.6-5.8-3.5-8.5-5.6c-1-0.8-1.8-1.6-2.4-2.1s-0.8-0.8-0.8-0.8v-1.7l3.2-0.1c2-0.1,5-0.3,8.5-0.3l25.7-0.4l25.7,0.4
			c3.5,0,6.4,0.3,8.5,0.3l3.2,0.1L231.9,305z"/>
		<path class="st3" d="M307.2,118.4c0-53-50.8-96-113.5-96s-113.5,43-113.5,96c0,38.1,26.3,74.6,64.3,90.1v37h98.3v-37
			C280.9,193,307.2,156.5,307.2,118.4z"/>
		<path class="st2" d="M249.2,250.8H138.3v-39.1C99.7,194.5,74,157.5,74,118.4c0-55.9,53.7-101.3,119.7-101.3
			s119.7,45.5,119.7,101.3c0,39-25.7,76.1-64.3,93.4L249.2,250.8z M150.8,240.2h85.8v-35.1l3.6-1.4c35.8-14.6,60.8-49.7,60.8-85.3
			c0-50-48.1-90.7-107.2-90.7S86.5,68.4,86.5,118.4c0,35.7,25,70.7,60.8,85.3l3.6,1.4V240.2z"/>
		<polygon class="st4" points="215.1,240.2 202.6,240.2 202.6,188.5 253.1,116.9 223.7,123.2 193.6,104.9 158,125.1 135.3,118.4 
			183.7,187.2 183.7,240.2 171.2,240.2 171.2,190.1 106.9,98.9 156.2,113.4 193.9,92 226.3,111.7 279.4,100.4 215.1,191.4 		"/>
	</g>
</g>
</svg>
