<svg id="圖層_1" data-name="圖層 1" xmlns="http://www.w3.org/2000/svg" viewBox="0 0 449.6 323.45"><defs><style>.cls-1{fill:#4b4d66;}.cls-2{fill:#e3e5f2;}.cls-3{fill:#6a97b4;}.cls-4{fill:#eed788;}.cls-5{fill:#aeafb9;}</style></defs><title>素材</title><rect class="cls-1" x="2.42" y="2.55" width="444.28" height="318.48"/><path class="cls-2" d="M444.28,5V318.6H4.85V5H444.28M449.12.12H0V323.45H449.12V.12Z"/><path class="cls-2" d="M444.28,5V24.72H4.85V5H444.28M449.12.12H0V29.56H449.12V.12Z"/><rect class="cls-1" x="2.79" y="27.02" width="443.91" height="294.01"/><path class="cls-2" d="M444.28,29.44V318.6H5.22V29.44H444.28m4.85-4.85H.37V323.45H449.12V24.59Z"/><circle class="cls-2" cx="45.85" cy="15.2" r="5.42"/><circle class="cls-3" cx="30.92" cy="15.2" r="5.2"/><circle class="cls-4" cx="16" cy="15.2" r="5.2"/><rect class="cls-3" x="5.8" y="58.29" width="43.54" height="187.17"/><rect class="cls-3" x="5.8" y="47.14" width="43.54" height="6.48"/><rect class="cls-3" x="5.22" y="30.11" width="439.06" height="10.5"/><rect class="cls-3" x="5.8" y="250.71" width="43.54" height="6.48"/><rect class="cls-3" x="358.65" y="45.96" width="84.62" height="262.6"/><polyline class="cls-5" points="353.94 298.44 353.94 306.99 54.68 306.99 54.68 46.32 353.94 46.32 353.94 298.44"/><rect class="cls-2" x="74.72" y="74.29" width="259.18" height="174.99"/><circle class="cls-4" cx="222.44" cy="125.42" r="34.07"/><rect class="cls-1" x="144.75" y="207.12" width="138.26" height="6"/><rect class="cls-1" x="163.92" y="219.81" width="138.26" height="6"/><polygon class="cls-3" points="91.04 196.45 148.11 106.67 182.48 160.24 205.02 137.38 251.46 196.45 91.04 196.45"/></svg>